<svg xmlns="http://www.w3.org/2000/svg" xmlns:xlink="http://www.w3.org/1999/xlink"><polygon points="0,200 0,100 1,99 2,100 3,99 4,100 5,99 6,100 7,101 8,102 9,101 10,102 11,103 12,104 13,103 14,104 15,105 16,106 17,107 18,106 19,107 20,108 21,107 22,108 23,109 24,110 25,109 26,110 27,111 28,110 29,111 30,112 31,113 32,114 33,113 34,112 35,111 36,112 37,111 38,110 39,111 40,112 41,111 42,110 43,111 44,110 45,109 46,108 47,109 48,110 49,109 50,108 51,107 52,108 53,109 54,108 55,107 56,106 57,107 58,106 59,107 60,106 61,105 62,106 63,105 64,104 65,103 66,104 67,105 68,106 69,105 70,106 71,105 72,106 73,107 74,106 75,107 76,106 77,107 78,108 79,107 80,108 81,109 82,110 83,111 84,110 85,111 86,112 87,113 88,112 89,113 90,114 91,115 92,116 93,117 94,118 95,117 96,116 97,117 98,118 99,117 100,116 101,117 102,118 103,119 104,120 105,119 106,120 107,121 108,122 109,123 110,124 111,125 112,126 113,125 114,124 115,123 116,122 117,123 118,122 119,123 120,122 121,123 122,122 123,121 124,122 125,121 126,120 127,121 128,122 129,123 130,124 131,125 132,124 133,125 134,126 135,127 136,126 137,125 138,126 139,125 140,126 141,127 142,126 143,125 144,126 145,125 146,126 147,125 148,124 149,123 150,124 151,123 152,122 153,121 154,122 155,123 156,124 157,125 158,126 159,125 160,124 161,125 162,124 163,125 164,124 165,123 166,122 167,123 168,124 169,125 170,124 171,123 172,124 173,123 174,124 175,123 176,122 177,121 178,120 179,121 180,122 181,121 182,122 183,123 184,124 185,123 186,122 187,121 188,122 189,121 190,122 191,121 192,120 193,121 194,122 195,121 196,120 197,121 198,120 199,121 200,120 201,121 202,120 203,121 204,120 205,119 206,118 207,117 208,118 209,119 210,118 211,117 212,118 213,117 214,118 215,119 216,118 217,119 218,120 219,119 220,120 221,121 222,122 223,123 224,122 225,123 226,122 227,121 228,122 229,123 230,124 231,125 232,124 233,123 234,122 235,121 236,122 237,121 238,120 239,121 240,120 241,121 242,122 243,123 244,122 245,121 246,122 247,123 248,122 249,121 250,122 251,123 252,124 253,123 254,122 255,123 256,122 257,121 258,122 259,123 260,122 261,121 262,120 263,119 264,118 265,117 266,118 267,119 268,118 269,117 270,116 271,115 272,116 273,117 274,116 275,115 276,116 277,117 278,118 279,117 280,116 281,115 282,116 283,117 284,118 285,119 286,120 287,119 288,120 289,121 290,122 291,123 292,124 293,123 294,124 295,123 296,124 297,123 298,124 299,125 300,124 301,123 302,124 303,123 304,124 305,125 306,126 307,127 308,128 309,129 310,130 311,131 312,132 313,131 314,130 315,131 316,130 317,129 318,128 319,129 320,128 321,129 322,128 323,129 324,128 325,127 326,128 327,127 328,128 329,129 330,128 331,129 332,128 333,127 334,126 335,125 336,124 337,123 338,124 339,125 340,126 341,127 342,128 343,127 344,128 345,129 346,130 347,131 348,130 349,131 350,132 351,133 352,134 353,135 354,136 355,135 356,134 357,135 358,134 359,135 360,134 361,133 362,132 363,131 364,132 365,133 366,134 367,135 368,134 369,135 370,136 371,137 372,136 373,137 374,138 375,139 376,138 377,137 378,138 379,137 380,136 381,135 382,136 383,135 384,136 385,135 386,134 387,135 388,134 389,133 390,132 391,133 392,132 393,131 394,130 395,131 396,132 397,131 398,132 399,133 400,200 " style="fill:rgb(130,0,11);stroke:rgb(111,49,230)"></polygon><polygon points="0,200 0,100 1,101 2,100 3,99 4,100 5,101 6,102 7,103 8,102 9,101 10,102 11,101 12,100 13,99 14,100 15,99 16,100 17,101 18,100 19,101 20,102 21,103 22,104 23,105 24,106 25,105 26,104 27,103 28,104 29,105 30,104 31,105 32,104 33,103 34,104 35,105 36,106 37,107 38,108 39,109 40,108 41,109 42,110 43,109 44,108 45,109 46,110 47,109 48,110 49,109 50,110 51,111 52,110 53,111 54,112 55,113 56,112 57,113 58,114 59,113 60,114 61,115 62,116 63,117 64,116 65,117 66,116 67,117 68,116 69,115 70,116 71,115 72,116 73,115 74,116 75,117 76,116 77,117 78,118 79,119 80,118 81,119 82,118 83,117 84,116 85,115 86,116 87,117 88,118 89,119 90,118 91,117 92,118 93,117 94,116 95,115 96,114 97,115 98,114 99,115 100,116 101,117 102,116 103,117 104,116 105,115 106,114 107,115 108,114 109,113 110,114 111,115 112,116 113,117 114,118 115,119 116,120 117,121 118,120 119,119 120,118 121,117 122,118 123,117 124,116 125,117 126,116 127,115 128,116 129,115 130,114 131,113 132,112 133,113 134,112 135,111 136,110 137,109 138,108 139,107 140,108 141,109 142,108 143,107 144,108 145,109 146,110 147,111 148,112 149,111 150,112 151,111 152,110 153,109 154,108 155,109 156,108 157,109 158,110 159,109 160,108 161,109 162,110 163,111 164,110 165,109 166,108 167,107 168,108 169,107 170,106 171,105 172,106 173,105 174,106 175,107 176,106 177,107 178,106 179,105 180,106 181,105 182,104 183,103 184,104 185,103 186,104 187,103 188,102 189,101 190,100 191,99 192,98 193,99 194,98 195,99 196,100 197,101 198,100 199,101 200,102 201,103 202,102 203,103 204,104 205,103 206,102 207,101 208,100 209,101 210,102 211,103 212,102 213,103 214,102 215,103 216,104 217,103 218,102 219,103 220,104 221,105 222,106 223,107 224,108 225,109 226,110 227,111 228,112 229,113 230,112 231,113 232,112 233,113 234,112 235,113 236,112 237,111 238,110 239,111 240,112 241,113 242,112 243,113 244,114 245,113 246,112 247,111 248,110 249,109 250,110 251,111 252,112 253,111 254,110 255,111 256,112 257,113 258,112 259,111 260,110 261,109 262,108 263,107 264,108 265,107 266,106 267,105 268,104 269,103 270,104 271,105 272,106 273,105 274,106 275,105 276,106 277,105 278,104 279,103 280,104 281,105 282,104 283,103 284,104 285,105 286,106 287,107 288,108 289,107 290,106 291,107 292,108 293,107 294,106 295,107 296,108 297,109 298,108 299,107 300,106 301,105 302,106 303,107 304,106 305,107 306,108 307,107 308,108 309,109 310,108 311,109 312,108 313,109 314,108 315,109 316,110 317,111 318,112 319,111 320,110 321,109 322,108 323,109 324,108 325,107 326,106 327,105 328,104 329,103 330,102 331,101 332,102 333,103 334,104 335,105 336,106 337,107 338,108 339,107 340,106 341,105 342,104 343,103 344,102 345,101 346,100 347,99 348,98 349,97 350,98 351,97 352,98 353,97 354,98 355,99 356,100 357,101 358,102 359,101 360,100 361,101 362,102 363,101 364,102 365,101 366,102 367,103 368,104 369,103 370,102 371,103 372,102 373,101 374,100 375,101 376,102 377,101 378,102 379,101 380,102 381,103 382,102 383,101 384,100 385,99 386,100 387,101 388,100 389,101 390,102 391,103 392,102 393,101 394,102 395,101 396,100 397,101 398,102 399,101 400,200 " style="fill:rgb(93,140,0);stroke:rgb(94,240,193)"></polygon><polygon points="0,200 0,100 1,99 2,98 3,97 4,98 5,97 6,96 7,97 8,96 9,95 10,94 11,95 12,96 13,97 14,98 15,99 16,100 17,101 18,102 19,103 20,102 21,101 22,102 23,103 24,104 25,105 26,104 27,103 28,104 29,105 30,106 31,107 32,108 33,109 34,108 35,109 36,110 37,109 38,110 39,111 40,112 41,111 42,110 43,109 44,108 45,107 46,106 47,107 48,106 49,105 50,106 51,107 52,108 53,107 54,106 55,105 56,106 57,107 58,108 59,109 60,110 61,111 62,112 63,111 64,112 65,111 66,112 67,111 68,110 69,111 70,112 71,113 72,114 73,115 74,114 75,115 76,114 77,113 78,112 79,111 80,112 81,111 82,112 83,111 84,110 85,111 86,112 87,111 88,110 89,109 90,108 91,107 92,106 93,107 94,108 95,107 96,108 97,107 98,108 99,109 100,110 101,109 102,108 103,109 104,108 105,107 106,108 107,107 108,108 109,107 110,108 111,107 112,108 113,107 114,106 115,105 116,104 117,105 118,104 119,103 120,102 121,103 122,104 123,103 124,104 125,103 126,104 127,103 128,104 129,103 130,104 131,105 132,104 133,105 134,106 135,107 136,106 137,105 138,106 139,105 140,106 141,105 142,106 143,107 144,108 145,109 146,110 147,111 148,110 149,111 150,110 151,109 152,108 153,109 154,108 155,107 156,108 157,109 158,108 159,109 160,108 161,107 162,108 163,107 164,108 165,109 166,110 167,111 168,110 169,109 170,108 171,109 172,110 173,109 174,108 175,109 176,108 177,107 178,108 179,107 180,108 181,109 182,110 183,109 184,108 185,107 186,108 187,107 188,106 189,107 190,106 191,105 192,104 193,105 194,104 195,103 196,102 197,103 198,102 199,101 200,102 201,103 202,102 203,103 204,102 205,101 206,102 207,103 208,102 209,101 210,102 211,103 212,102 213,103 214,102 215,103 216,102 217,101 218,100 219,99 220,100 221,101 222,102 223,101 224,100 225,101 226,102 227,101 228,102 229,103 230,102 231,103 232,102 233,103 234,102 235,103 236,102 237,101 238,102 239,103 240,102 241,103 242,104 243,103 244,102 245,103 246,102 247,103 248,104 249,103 250,102 251,103 252,104 253,103 254,102 255,101 256,100 257,99 258,98 259,97 260,98 261,97 262,96 263,97 264,98 265,99 266,100 267,101 268,100 269,99 270,98 271,99 272,100 273,101 274,102 275,101 276,102 277,103 278,102 279,101 280,102 281,103 282,104 283,103 284,102 285,103 286,104 287,105 288,106 289,105 290,104 291,103 292,102 293,103 294,104 295,105 296,104 297,103 298,104 299,105 300,106 301,107 302,108 303,107 304,106 305,107 306,106 307,107 308,108 309,107 310,106 311,105 312,104 313,103 314,102 315,103 316,102 317,103 318,104 319,103 320,104 321,105 322,106 323,107 324,108 325,107 326,108 327,107 328,108 329,109 330,110 331,109 332,110 333,111 334,110 335,111 336,110 337,109 338,110 339,111 340,110 341,111 342,112 343,113 344,112 345,113 346,112 347,111 348,112 349,111 350,110 351,109 352,110 353,109 354,108 355,109 356,108 357,107 358,106 359,107 360,106 361,105 362,104 363,103 364,104 365,105 366,106 367,107 368,108 369,109 370,110 371,109 372,108 373,109 374,110 375,109 376,110 377,111 378,112 379,113 380,112 381,113 382,112 383,111 384,110 385,111 386,112 387,113 388,112 389,113 390,112 391,113 392,112 393,113 394,114 395,113 396,112 397,111 398,112 399,113 400,200 " style="fill:rgb(0,0,140);stroke:rgb(240,4,85)"></polygon><polygon points="0,200 0,100 1,99 2,100 3,101 4,100 5,99 6,100 7,101 8,102 9,103 10,102 11,101 12,100 13,99 14,98 15,99 16,100 17,101 18,100 19,101 20,102 21,103 22,102 23,101 24,100 25,101 26,100 27,101 28,100 29,99 30,98 31,99 32,98 33,97 34,98 35,99 36,100 37,99 38,98 39,99 40,100 41,101 42,100 43,101 44,102 45,101 46,100 47,101 48,102 49,103 50,102 51,101 52,100 53,99 54,100 55,99 56,100 57,101 58,102 59,101 60,100 61,99 62,98 63,97 64,98 65,99 66,98 67,97 68,96 69,97 70,96 71,97 72,98 73,99 74,98 75,99 76,100 77,99 78,98 79,97 80,98 81,97 82,96 83,97 84,96 85,95 86,94 87,95 88,94 89,93 90,94 91,95 92,94 93,93 94,94 95,95 96,94 97,93 98,92 99,91 100,90 101,91 102,90 103,91 104,90 105,91 106,92 107,93 108,92 109,93 110,92 111,91 112,92 113,93 114,94 115,93 116,94 117,95 118,94 119,93 120,92 121,91 122,90 123,91 124,92 125,91 126,92 127,91 128,90 129,91 130,92 131,93 132,94 133,95 134,94 135,95 136,94 137,93 138,92 139,91 140,90 141,89 142,88 143,87 144,86 145,85 146,84 147,85 148,86 149,87 150,88 151,87 152,86 153,85 154,84 155,85 156,86 157,85 158,86 159,87 160,86 161,87 162,88 163,89 164,88 165,87 166,88 167,87 168,88 169,89 170,90 171,89 172,90 173,89 174,90 175,91 176,92 177,93 178,94 179,95 180,94 181,95 182,96 183,95 184,96 185,97 186,98 187,97 188,98 189,97 190,96 191,97 192,98 193,97 194,96 195,95 196,94 197,95 198,94 199,95 200,96 201,97 202,98 203,99 204,100 205,101 206,100 207,101 208,100 209,101 210,100 211,101 212,100 213,101 214,100 215,99 216,100 217,101 218,100 219,101 220,102 221,101 222,102 223,101 224,102 225,101 226,100 227,101 228,102 229,101 230,102 231,101 232,100 233,101 234,102 235,101 236,100 237,99 238,98 239,99 240,100 241,99 242,98 243,97 244,98 245,97 246,98 247,97 248,98 249,99 250,98 251,97 252,96 253,95 254,94 255,93 256,94 257,93 258,92 259,93 260,92 261,91 262,92 263,91 264,90 265,89 266,88 267,89 268,90 269,89 270,90 271,89 272,90 273,89 274,90 275,89 276,90 277,91 278,92 279,91 280,92 281,93 282,92 283,93 284,92 285,91 286,90 287,91 288,90 289,89 290,90 291,91 292,90 293,89 294,88 295,89 296,90 297,89 298,90 299,91 300,90 301,89 302,88 303,89 304,90 305,91 306,90 307,91 308,90 309,91 310,90 311,91 312,92 313,91 314,92 315,91 316,92 317,93 318,94 319,95 320,96 321,97 322,96 323,95 324,94 325,93 326,92 327,91 328,90 329,89 330,90 331,89 332,88 333,89 334,90 335,91 336,90 337,91 338,90 339,89 340,90 341,89 342,90 343,91 344,92 345,91 346,92 347,93 348,94 349,93 350,92 351,91 352,92 353,93 354,92 355,91 356,92 357,91 358,90 359,89 360,88 361,89 362,88 363,89 364,90 365,91 366,90 367,91 368,90 369,91 370,92 371,93 372,92 373,93 374,94 375,93 376,94 377,93 378,92 379,93 380,92 381,93 382,92 383,93 384,94 385,93 386,94 387,95 388,94 389,95 390,94 391,93 392,92 393,91 394,92 395,91 396,92 397,93 398,94 399,95 400,200 " style="fill:rgb(0,0,128);stroke:rgb(228,3,6)"></polygon><polygon points="0,200 0,100 1,99 2,100 3,101 4,100 5,99 6,98 7,99 8,98 9,97 10,96 11,97 12,96 13,95 14,94 15,95 16,96 17,97 18,98 19,97 20,96 21,97 22,98 23,99 24,98 25,99 26,98 27,99 28,100 29,99 30,100 31,99 32,100 33,101 34,102 35,103 36,102 37,101 38,102 39,101 40,102 41,101 42,102 43,101 44,100 45,101 46,100 47,99 48,100 49,101 50,102 51,103 52,102 53,103 54,104 55,105 56,106 57,107 58,106 59,107 60,106 61,107 62,106 63,107 64,108 65,109 66,110 67,111 68,112 69,113 70,114 71,113 72,112 73,113 74,114 75,113 76,112 77,113 78,112 79,113 80,114 81,113 82,112 83,111 84,110 85,109 86,108 87,109 88,108 89,109 90,108 91,107 92,108 93,107 94,108 95,109 96,110 97,111 98,112 99,113 100,114 101,113 102,114 103,113 104,112 105,113 106,114 107,115 108,116 109,117 110,116 111,115 112,114 113,115 114,116 115,115 116,114 117,113 118,112 119,113 120,112 121,111 122,112 123,111 124,110 125,111 126,112 127,113 128,114 129,115 130,114 131,115 132,114 133,115 134,116 135,117 136,116 137,115 138,116 139,115 140,116 141,117 142,116 143,117 144,116 145,115 146,114 147,113 148,112 149,113 150,112 151,111 152,112 153,113 154,112 155,113 156,112 157,111 158,112 159,113 160,112 161,113 162,114 163,115 164,114 165,115 166,114 167,113 168,112 169,113 170,112 171,113 172,112 173,111 174,112 175,111 176,112 177,111 178,112 179,113 180,114 181,113 182,114 183,115 184,116 185,117 186,116 187,117 188,118 189,119 190,120 191,119 192,120 193,119 194,118 195,117 196,118 197,119 198,118 199,119 200,120 201,119 202,118 203,119 204,118 205,119 206,118 207,117 208,116 209,117 210,116 211,117 212,116 213,117 214,118 215,117 216,118 217,117 218,116 219,117 220,118 221,119 222,120 223,121 224,122 225,121 226,122 227,123 228,122 229,123 230,124 231,123 232,122 233,121 234,122 235,121 236,120 237,119 238,120 239,121 240,122 241,121 242,122 243,121 244,122 245,123 246,122 247,123 248,124 249,123 250,124 251,125 252,126 253,125 254,124 255,125 256,124 257,123 258,124 259,123 260,122 261,121 262,122 263,123 264,122 265,123 266,122 267,121 268,122 269,123 270,124 271,123 272,122 273,121 274,120 275,121 276,122 277,121 278,122 279,121 280,120 281,121 282,120 283,121 284,120 285,119 286,120 287,119 288,118 289,119 290,120 291,121 292,122 293,121 294,120 295,121 296,120 297,119 298,118 299,117 300,116 301,117 302,116 303,115 304,114 305,113 306,114 307,115 308,114 309,115 310,116 311,115 312,116 313,117 314,118 315,117 316,118 317,117 318,116 319,117 320,118 321,119 322,120 323,119 324,118 325,117 326,118 327,117 328,116 329,115 330,116 331,117 332,116 333,115 334,114 335,115 336,114 337,115 338,116 339,115 340,116 341,117 342,118 343,117 344,118 345,117 346,116 347,117 348,116 349,115 350,116 351,115 352,116 353,115 354,114 355,115 356,114 357,115 358,114 359,115 360,116 361,115 362,114 363,115 364,116 365,117 366,118 367,119 368,120 369,119 370,118 371,119 372,118 373,119 374,118 375,119 376,120 377,119 378,120 379,119 380,118 381,119 382,118 383,117 384,116 385,115 386,116 387,117 388,118 389,119 390,118 391,119 392,120 393,119 394,118 395,119 396,120 397,121 398,120 399,121 400,200 " style="fill:rgb(40,0,0);stroke:rgb(8,89,140)"></polygon><polygon points="0,200 0,100 1,99 2,100 3,101 4,100 5,101 6,102 7,103 8,102 9,103 10,104 11,103 12,102 13,103 14,104 15,105 16,106 17,107 18,108 19,109 20,108 21,107 22,108 23,109 24,110 25,111 26,110 27,111 28,112 29,113 30,114 31,113 32,112 33,111 34,110 35,111 36,110 37,111 38,112 39,111 40,112 41,113 42,112 43,111 44,110 45,111 46,110 47,111 48,112 49,111 50,110 51,109 52,110 53,111 54,112 55,111 56,112 57,113 58,114 59,113 60,112 61,113 62,112 63,113 64,112 65,113 66,114 67,115 68,116 69,115 70,114 71,113 72,112 73,111 74,112 75,111 76,112 77,111 78,112 79,113 80,114 81,115 82,114 83,113 84,112 85,111 86,112 87,113 88,114 89,113 90,114 91,115 92,116 93,115 94,114 95,113 96,112 97,113 98,114 99,115 100,114 101,115 102,116 103,117 104,116 105,117 106,116 107,115 108,114 109,113 110,114 111,113 112,112 113,111 114,110 115,111 116,112 117,111 118,112 119,113 120,112 121,111 122,110 123,109 124,110 125,111 126,112 127,113 128,112 129,111 130,112 131,113 132,112 133,111 134,110 135,111 136,112 137,111 138,110 139,109 140,108 141,109 142,108 143,109 144,110 145,111 146,112 147,111 148,112 149,113 150,114 151,115 152,116 153,117 154,116 155,115 156,114 157,115 158,116 159,115 160,116 161,115 162,114 163,115 164,114 165,115 166,116 167,115 168,114 169,115 170,116 171,115 172,114 173,113 174,114 175,115 176,114 177,113 178,112 179,113 180,114 181,115 182,114 183,113 184,114 185,115 186,114 187,113 188,112 189,113 190,114 191,115 192,114 193,115 194,114 195,113 196,114 197,115 198,114 199,115 200,114 201,115 202,114 203,115 204,114 205,113 206,114 207,113 208,112 209,111 210,110 211,111 212,112 213,113 214,114 215,115 216,114 217,115 218,114 219,115 220,116 221,115 222,116 223,115 224,114 225,115 226,116 227,115 228,114 229,113 230,114 231,113 232,114 233,115 234,116 235,117 236,118 237,117 238,118 239,117 240,118 241,119 242,118 243,117 244,116 245,115 246,116 247,115 248,116 249,115 250,116 251,117 252,118 253,119 254,118 255,119 256,118 257,119 258,120 259,121 260,122 261,121 262,120 263,119 264,120 265,119 266,120 267,121 268,122 269,121 270,122 271,123 272,122 273,123 274,122 275,123 276,124 277,123 278,124 279,125 280,124 281,123 282,122 283,123 284,122 285,121 286,120 287,119 288,120 289,119 290,118 291,119 292,120 293,119 294,120 295,121 296,122 297,123 298,124 299,125 300,124 301,123 302,122 303,121 304,122 305,123 306,124 307,123 308,124 309,123 310,122 311,123 312,122 313,123 314,124 315,123 316,124 317,123 318,122 319,123 320,122 321,123 322,122 323,123 324,124 325,125 326,126 327,125 328,124 329,125 330,126 331,125 332,124 333,125 334,124 335,125 336,124 337,125 338,126 339,127 340,128 341,127 342,126 343,127 344,128 345,129 346,128 347,127 348,126 349,127 350,126 351,127 352,128 353,127 354,128 355,129 356,128 357,129 358,128 359,127 360,126 361,127 362,128 363,129 364,128 365,127 366,126 367,125 368,124 369,125 370,126 371,125 372,124 373,123 374,122 375,123 376,122 377,123 378,122 379,123 380,122 381,123 382,122 383,121 384,120 385,121 386,122 387,123 388,124 389,123 390,122 391,123 392,122 393,121 394,120 395,119 396,120 397,119 398,118 399,117 400,200 " style="fill:rgb(0,0,118);stroke:rgb(218,59,80)"></polygon><polygon points="0,200 0,100 1,99 2,98 3,97 4,96 5,95 6,94 7,95 8,94 9,93 10,92 11,91 12,90 13,89 14,88 15,89 16,90 17,89 18,88 19,87 20,88 21,87 22,86 23,87 24,88 25,87 26,86 27,85 28,84 29,83 30,84 31,83 32,84 33,85 34,86 35,87 36,86 37,87 38,88 39,89 40,88 41,87 42,88 43,89 44,90 45,89 46,90 47,91 48,92 49,93 50,92 51,93 52,94 53,95 54,96 55,95 56,94 57,95 58,96 59,97 60,96 61,95 62,94 63,93 64,92 65,91 66,92 67,91 68,92 69,91 70,92 71,93 72,92 73,91 74,92 75,91 76,92 77,91 78,92 79,93 80,94 81,95 82,94 83,93 84,94 85,95 86,94 87,95 88,94 89,95 90,96 91,97 92,96 93,97 94,96 95,95 96,94 97,93 98,94 99,95 100,94 101,95 102,94 103,93 104,92 105,93 106,92 107,91 108,92 109,93 110,94 111,93 112,94 113,95 114,94 115,95 116,96 117,95 118,94 119,93 120,94 121,93 122,94 123,93 124,94 125,95 126,94 127,95 128,94 129,93 130,92 131,93 132,92 133,91 134,92 135,93 136,94 137,95 138,96 139,97 140,98 141,99 142,100 143,99 144,100 145,99 146,100 147,99 148,98 149,99 150,98 151,99 152,100 153,101 154,100 155,101 156,102 157,101 158,100 159,101 160,100 161,99 162,100 163,99 164,98 165,97 166,98 167,97 168,96 169,95 170,94 171,95 172,94 173,95 174,94 175,95 176,94 177,93 178,92 179,93 180,92 181,93 182,92 183,91 184,92 185,91 186,90 187,89 188,90 189,89 190,90 191,91 192,90 193,91 194,92 195,93 196,94 197,93 198,94 199,93 200,92 201,93 202,92 203,91 204,90 205,91 206,92 207,93 208,94 209,95 210,94 211,93 212,94 213,95 214,94 215,95 216,94 217,93 218,92 219,93 220,94 221,95 222,94 223,93 224,94 225,93 226,94 227,95 228,94 229,93 230,92 231,91 232,90 233,89 234,90 235,91 236,90 237,91 238,90 239,91 240,92 241,93 242,92 243,93 244,94 245,95 246,96 247,97 248,96 249,97 250,98 251,99 252,100 253,101 254,102 255,103 256,104 257,103 258,104 259,103 260,104 261,103 262,102 263,103 264,102 265,101 266,102 267,101 268,100 269,99 270,98 271,99 272,100 273,99 274,98 275,99 276,100 277,99 278,98 279,99 280,100 281,101 282,100 283,99 284,98 285,97 286,98 287,99 288,98 289,99 290,98 291,99 292,100 293,99 294,100 295,101 296,100 297,101 298,100 299,99 300,98 301,99 302,98 303,99 304,98 305,99 306,100 307,101 308,102 309,101 310,100 311,101 312,102 313,103 314,102 315,103 316,102 317,103 318,104 319,103 320,104 321,103 322,102 323,103 324,102 325,101 326,102 327,103 328,102 329,101 330,102 331,101 332,100 333,99 334,98 335,97 336,96 337,95 338,94 339,93 340,92 341,93 342,92 343,93 344,94 345,93 346,94 347,93 348,92 349,93 350,92 351,93 352,92 353,93 354,94 355,93 356,92 357,91 358,92 359,91 360,92 361,93 362,94 363,93 364,94 365,93 366,92 367,91 368,90 369,89 370,90 371,91 372,90 373,89 374,88 375,89 376,88 377,87 378,86 379,87 380,88 381,87 382,88 383,89 384,88 385,87 386,86 387,85 388,86 389,87 390,88 391,87 392,86 393,85 394,84 395,83 396,82 397,83 398,84 399,83 400,200 " style="fill:rgb(0,39,82);stroke:rgb(182,139,86)"></polygon><polygon points="0,200 0,100 1,101 2,100 3,99 4,100 5,99 6,100 7,99 8,100 9,101 10,100 11,99 12,100 13,99 14,98 15,97 16,98 17,97 18,98 19,99 20,100 21,99 22,100 23,101 24,100 25,99 26,98 27,97 28,98 29,99 30,100 31,99 32,100 33,101 34,100 35,101 36,100 37,101 38,102 39,101 40,102 41,101 42,102 43,103 44,102 45,103 46,102 47,103 48,102 49,103 50,104 51,103 52,104 53,103 54,104 55,103 56,102 57,103 58,104 59,103 60,102 61,101 62,100 63,101 64,100 65,99 66,98 67,97 68,96 69,97 70,98 71,97 72,98 73,99 74,100 75,99 76,100 77,101 78,100 79,99 80,100 81,101 82,100 83,99 84,100 85,99 86,100 87,101 88,100 89,99 90,100 91,101 92,100 93,101 94,100 95,101 96,100 97,101 98,100 99,101 100,100 101,99 102,100 103,101 104,102 105,101 106,102 107,101 108,100 109,99 110,100 111,99 112,100 113,99 114,100 115,99 116,98 117,99 118,100 119,99 120,98 121,97 122,98 123,97 124,96 125,97 126,96 127,97 128,98 129,97 130,96 131,95 132,94 133,95 134,94 135,95 136,96 137,97 138,98 139,97 140,96 141,95 142,96 143,97 144,96 145,95 146,94 147,93 148,92 149,91 150,92 151,91 152,92 153,91 154,92 155,91 156,90 157,89 158,88 159,89 160,90 161,89 162,90 163,89 164,88 165,87 166,88 167,87 168,88 169,87 170,88 171,89 172,90 173,89 174,88 175,87 176,86 177,85 178,84 179,85 180,86 181,85 182,86 183,87 184,86 185,87 186,88 187,87 188,86 189,85 190,86 191,87 192,88 193,89 194,90 195,91 196,90 197,91 198,92 199,91 200,90 201,91 202,92 203,91 204,90 205,91 206,90 207,89 208,88 209,89 210,88 211,87 212,88 213,89 214,90 215,89 216,88 217,87 218,86 219,87 220,86 221,85 222,84 223,83 224,82 225,83 226,84 227,85 228,84 229,83 230,84 231,83 232,84 233,85 234,86 235,87 236,86 237,85 238,86 239,87 240,86 241,85 242,86 243,85 244,86 245,85 246,84 247,83 248,84 249,83 250,84 251,85 252,84 253,83 254,84 255,85 256,86 257,87 258,86 259,87 260,86 261,87 262,86 263,85 264,86 265,87 266,88 267,87 268,88 269,89 270,90 271,89 272,88 273,89 274,88 275,87 276,86 277,85 278,84 279,83 280,84 281,85 282,86 283,85 284,86 285,87 286,88 287,87 288,86 289,87 290,88 291,89 292,90 293,89 294,88 295,89 296,88 297,89 298,88 299,89 300,88 301,89 302,88 303,89 304,88 305,89 306,88 307,89 308,88 309,87 310,86 311,85 312,84 313,83 314,82 315,81 316,80 317,81 318,82 319,83 320,84 321,83 322,84 323,85 324,86 325,87 326,86 327,87 328,88 329,89 330,88 331,89 332,90 333,91 334,90 335,91 336,92 337,93 338,92 339,93 340,94 341,95 342,96 343,95 344,94 345,95 346,94 347,93 348,94 349,93 350,94 351,95 352,96 353,95 354,94 355,93 356,94 357,95 358,96 359,97 360,96 361,97 362,98 363,97 364,96 365,95 366,96 367,95 368,96 369,97 370,98 371,97 372,98 373,99 374,98 375,99 376,100 377,99 378,98 379,97 380,98 381,97 382,98 383,99 384,100 385,101 386,100 387,101 388,100 389,101 390,100 391,99 392,100 393,101 394,100 395,101 396,102 397,103 398,102 399,103 400,200 " style="fill:rgb(0,61,70);stroke:rgb(170,161,15)"></polygon><polygon points="0,200 0,100 1,99 2,98 3,99 4,98 5,99 6,100 7,99 8,98 9,99 10,98 11,97 12,96 13,97 14,98 15,99 16,98 17,99 18,98 19,99 20,100 21,101 22,102 23,103 24,104 25,103 26,102 27,103 28,104 29,105 30,104 31,103 32,102 33,101 34,102 35,101 36,100 37,99 38,100 39,99 40,98 41,99 42,100 43,101 44,100 45,101 46,100 47,99 48,100 49,99 50,100 51,101 52,100 53,99 54,100 55,99 56,100 57,101 58,102 59,101 60,102 61,101 62,100 63,101 64,102 65,101 66,100 67,101 68,100 69,99 70,98 71,99 72,98 73,97 74,96 75,97 76,98 77,97 78,96 79,95 80,94 81,95 82,94 83,93 84,94 85,93 86,94 87,93 88,92 89,93 90,92 91,91 92,92 93,93 94,94 95,93 96,92 97,91 98,90 99,89 100,88 101,89 102,90 103,91 104,90 105,91 106,92 107,93 108,92 109,91 110,92 111,91 112,90 113,91 114,90 115,91 116,92 117,91 118,90 119,89 120,88 121,89 122,90 123,89 124,90 125,91 126,92 127,91 128,92 129,93 130,92 131,93 132,94 133,95 134,96 135,95 136,96 137,97 138,98 139,99 140,100 141,101 142,100 143,99 144,98 145,99 146,100 147,101 148,100 149,101 150,100 151,101 152,100 153,99 154,98 155,99 156,98 157,97 158,98 159,97 160,96 161,97 162,98 163,97 164,98 165,97 166,96 167,97 168,96 169,95 170,96 171,97 172,96 173,95 174,94 175,93 176,92 177,93 178,92 179,91 180,92 181,93 182,94 183,93 184,94 185,93 186,92 187,93 188,94 189,95 190,94 191,95 192,96 193,97 194,98 195,97 196,96 197,95 198,94 199,93 200,94 201,93 202,94 203,93 204,94 205,93 206,94 207,93 208,94 209,95 210,94 211,93 212,94 213,93 214,94 215,93 216,92 217,93 218,92 219,91 220,92 221,93 222,94 223,93 224,92 225,91 226,92 227,91 228,92 229,91 230,90 231,91 232,92 233,93 234,94 235,93 236,92 237,93 238,92 239,91 240,90 241,89 242,90 243,89 244,90 245,89 246,90 247,91 248,92 249,91 250,90 251,89 252,88 253,89 254,88 255,89 256,88 257,89 258,88 259,89 260,90 261,89 262,90 263,91 264,90 265,91 266,90 267,89 268,88 269,89 270,88 271,87 272,88 273,89 274,88 275,87 276,88 277,89 278,88 279,87 280,88 281,87 282,86 283,85 284,86 285,87 286,88 287,89 288,88 289,89 290,90 291,89 292,88 293,87 294,86 295,85 296,84 297,85 298,84 299,85 300,86 301,87 302,86 303,87 304,86 305,85 306,86 307,85 308,84 309,83 310,84 311,83 312,82 313,83 314,82 315,83 316,84 317,85 318,86 319,85 320,84 321,83 322,82 323,81 324,80 325,81 326,82 327,81 328,82 329,81 330,80 331,79 332,80 333,81 334,82 335,83 336,82 337,83 338,82 339,81 340,80 341,81 342,82 343,83 344,82 345,81 346,80 347,81 348,82 349,81 350,82 351,81 352,82 353,83 354,84 355,83 356,84 357,83 358,82 359,81 360,80 361,79 362,78 363,77 364,78 365,79 366,78 367,77 368,76 369,75 370,76 371,75 372,76 373,75 374,76 375,75 376,74 377,75 378,74 379,75 380,76 381,75 382,76 383,75 384,74 385,73 386,72 387,73 388,72 389,71 390,70 391,71 392,72 393,71 394,70 395,69 396,70 397,69 398,68 399,69 400,200 " style="fill:rgb(76,0,16);stroke:rgb(116,29,176)"></polygon><polygon points="0,200 0,100 1,99 2,98 3,99 4,100 5,101 6,102 7,103 8,102 9,103 10,102 11,101 12,100 13,99 14,98 15,99 16,100 17,99 18,98 19,97 20,96 21,97 22,96 23,97 24,98 25,99 26,98 27,97 28,96 29,97 30,98 31,97 32,96 33,95 34,96 35,95 36,96 37,95 38,96 39,97 40,98 41,97 42,98 43,99 44,100 45,99 46,100 47,99 48,100 49,99 50,100 51,101 52,102 53,101 54,100 55,101 56,100 57,99 58,100 59,101 60,102 61,103 62,102 63,101 64,100 65,99 66,98 67,99 68,98 69,99 70,98 71,97 72,96 73,97 74,96 75,95 76,94 77,93 78,92 79,93 80,92 81,93 82,92 83,93 84,94 85,95 86,96 87,95 88,96 89,95 90,94 91,95 92,96 93,95 94,94 95,95 96,96 97,95 98,96 99,95 100,94 101,93 102,92 103,93 104,92 105,93 106,94 107,93 108,92 109,93 110,94 111,93 112,92 113,93 114,92 115,91 116,92 117,91 118,92 119,91 120,92 121,91 122,90 123,91 124,92 125,93 126,94 127,95 128,96 129,95 130,94 131,93 132,92 133,93 134,92 135,93 136,94 137,93 138,94 139,93 140,94 141,93 142,92 143,91 144,92 145,91 146,90 147,91 148,92 149,91 150,92 151,93 152,92 153,93 154,94 155,95 156,94 157,93 158,94 159,95 160,96 161,97 162,96 163,97 164,98 165,99 166,100 167,101 168,102 169,101 170,102 171,101 172,100 173,99 174,100 175,101 176,100 177,101 178,102 179,103 180,104 181,105 182,106 183,107 184,108 185,109 186,110 187,109 188,110 189,111 190,110 191,109 192,110 193,111 194,112 195,111 196,110 197,109 198,108 199,109 200,110 201,111 202,110 203,109 204,110 205,111 206,112 207,113 208,114 209,115 210,114 211,113 212,114 213,113 214,114 215,115 216,114 217,115 218,114 219,113 220,114 221,113 222,114 223,113 224,114 225,113 226,114 227,113 228,114 229,113 230,112 231,111 232,112 233,113 234,112 235,111 236,110 237,111 238,112 239,111 240,110 241,111 242,110 243,109 244,110 245,111 246,112 247,111 248,110 249,111 250,112 251,111 252,110 253,109 254,110 255,111 256,110 257,109 258,108 259,107 260,106 261,105 262,106 263,105 264,104 265,105 266,106 267,107 268,108 269,107 270,108 271,107 272,108 273,107 274,106 275,105 276,106 277,105 278,106 279,107 280,108 281,109 282,110 283,111 284,112 285,111 286,112 287,113 288,114 289,115 290,116 291,117 292,118 293,117 294,116 295,115 296,116 297,117 298,116 299,115 300,114 301,115 302,116 303,115 304,116 305,115 306,114 307,115 308,116 309,115 310,116 311,117 312,118 313,119 314,118 315,117 316,118 317,117 318,116 319,115 320,116 321,115 322,114 323,113 324,112 325,113 326,114 327,115 328,114 329,115 330,114 331,113 332,112 333,111 334,110 335,111 336,110 337,111 338,110 339,109 340,110 341,109 342,110 343,111 344,112 345,113 346,114 347,115 348,116 349,117 350,118 351,117 352,118 353,117 354,118 355,119 356,118 357,117 358,118 359,117 360,116 361,115 362,116 363,117 364,116 365,117 366,116 367,117 368,118 369,117 370,116 371,117 372,116 373,117 374,118 375,119 376,120 377,121 378,120 379,121 380,122 381,123 382,122 383,121 384,120 385,121 386,122 387,123 388,122 389,123 390,124 391,123 392,122 393,121 394,122 395,123 396,122 397,123 398,122 399,123 400,200 " style="fill:rgb(38,0,0);stroke:rgb(60,32,138)"></polygon></svg>