<svg xmlns="http://www.w3.org/2000/svg" xmlns:xlink="http://www.w3.org/1999/xlink"><polygon points="0,200 0,100 1,99 2,98 3,99 4,98 5,97 6,98 7,97 8,98 9,97 10,98 11,97 12,96 13,97 14,98 15,99 16,100 17,101 18,102 19,103 20,102 21,103 22,102 23,101 24,100 25,99 26,100 27,99 28,98 29,97 30,98 31,97 32,96 33,97 34,98 35,97 36,98 37,97 38,98 39,99 40,100 41,99 42,98 43,99 44,98 45,99 46,100 47,99 48,100 49,101 50,102 51,101 52,102 53,103 54,104 55,105 56,104 57,105 58,106 59,105 60,104 61,103 62,102 63,103 64,104 65,103 66,104 67,103 68,102 69,103 70,102 71,103 72,104 73,103 74,104 75,103 76,104 77,105 78,106 79,107 80,108 81,109 82,108 83,109 84,110 85,109 86,110 87,111 88,110 89,109 90,110 91,111 92,110 93,111 94,110 95,111 96,112 97,113 98,112 99,111 100,112 101,113 102,112 103,111 104,110 105,111 106,110 107,109 108,110 109,109 110,110 111,109 112,110 113,109 114,108 115,107 116,106 117,105 118,104 119,105 120,106 121,107 122,106 123,105 124,104 125,103 126,104 127,103 128,104 129,105 130,106 131,105 132,106 133,105 134,104 135,105 136,104 137,105 138,106 139,107 140,106 141,107 142,106 143,105 144,104 145,103 146,102 147,101 148,102 149,101 150,102 151,101 152,100 153,99 154,98 155,99 156,98 157,99 158,100 159,99 160,98 161,99 162,98 163,99 164,98 165,99 166,100 167,99 168,98 169,97 170,96 171,95 172,94 173,95 174,94 175,93 176,92 177,91 178,92 179,93 180,92 181,93 182,94 183,93 184,92 185,91 186,90 187,91 188,92 189,93 190,92 191,91 192,90 193,91 194,92 195,93 196,94 197,93 198,92 199,91 200,90 201,89 202,90 203,89 204,88 205,89 206,90 207,89 208,88 209,89 210,88 211,87 212,88 213,87 214,88 215,87 216,88 217,89 218,90 219,91 220,90 221,91 222,92 223,93 224,92 225,93 226,92 227,91 228,92 229,91 230,90 231,89 232,88 233,89 234,88 235,89 236,88 237,89 238,90 239,91 240,90 241,91 242,90 243,91 244,92 245,93 246,94 247,93 248,94 249,95 250,96 251,95 252,96 253,95 254,96 255,97 256,96 257,95 258,94 259,93 260,92 261,91 262,90 263,91 264,90 265,91 266,92 267,93 268,92 269,93 270,94 271,93 272,92 273,93 274,94 275,93 276,92 277,93 278,92 279,93 280,94 281,95 282,94 283,95 284,96 285,97 286,96 287,97 288,98 289,97 290,96 291,95 292,96 293,95 294,96 295,95 296,96 297,95 298,94 299,93 300,94 301,93 302,94 303,93 304,94 305,95 306,96 307,97 308,96 309,97 310,96 311,95 312,96 313,97 314,98 315,99 316,100 317,101 318,102 319,103 320,102 321,103 322,102 323,101 324,102 325,103 326,102 327,101 328,102 329,103 330,104 331,103 332,104 333,103 334,102 335,101 336,102 337,103 338,104 339,103 340,104 341,105 342,104 343,103 344,102 345,101 346,102 347,101 348,100 349,99 350,100 351,101 352,100 353,101 354,102 355,103 356,104 357,105 358,104 359,105 360,104 361,105 362,104 363,103 364,102 365,101 366,100 367,101 368,100 369,99 370,100 371,99 372,98 373,99 374,100 375,101 376,102 377,101 378,100 379,101 380,102 381,103 382,102 383,101 384,100 385,101 386,100 387,99 388,100 389,101 390,102 391,101 392,100 393,99 394,100 395,99 396,100 397,99 398,98 399,97 400,200 " style="fill:rgb(0,53,50);stroke:rgb(150,153,92)"></polygon><polygon points="0,200 0,100 1,101 2,100 3,99 4,100 5,99 6,100 7,99 8,98 9,97 10,96 11,95 12,94 13,95 14,96 15,95 16,94 17,93 18,92 19,93 20,92 21,93 22,92 23,93 24,92 25,91 26,92 27,91 28,92 29,93 30,92 31,91 32,90 33,91 34,92 35,91 36,90 37,89 38,88 39,89 40,88 41,89 42,90 43,91 44,92 45,91 46,92 47,93 48,92 49,93 50,94 51,93 52,92 53,91 54,92 55,93 56,92 57,93 58,92 59,91 60,92 61,91 62,92 63,91 64,92 65,91 66,92 67,93 68,92 69,91 70,90 71,89 72,88 73,89 74,90 75,89 76,88 77,89 78,90 79,91 80,90 81,91 82,90 83,91 84,90 85,89 86,90 87,91 88,90 89,89 90,90 91,89 92,90 93,89 94,90 95,89 96,88 97,89 98,90 99,91 100,90 101,89 102,90 103,91 104,92 105,91 106,90 107,89 108,88 109,89 110,88 111,89 112,88 113,87 114,88 115,89 116,88 117,89 118,90 119,89 120,88 121,89 122,90 123,89 124,88 125,89 126,90 127,89 128,90 129,89 130,88 131,89 132,90 133,89 134,90 135,91 136,92 137,93 138,92 139,93 140,94 141,93 142,92 143,93 144,94 145,95 146,94 147,93 148,92 149,93 150,94 151,95 152,94 153,93 154,94 155,95 156,96 157,97 158,98 159,97 160,98 161,99 162,100 163,99 164,100 165,101 166,102 167,103 168,102 169,101 170,102 171,101 172,100 173,99 174,98 175,99 176,98 177,99 178,98 179,97 180,98 181,97 182,96 183,95 184,96 185,97 186,96 187,97 188,96 189,95 190,94 191,95 192,96 193,95 194,94 195,95 196,96 197,97 198,98 199,97 200,96 201,95 202,94 203,93 204,94 205,93 206,92 207,93 208,92 209,93 210,94 211,95 212,94 213,95 214,96 215,97 216,98 217,99 218,100 219,99 220,98 221,99 222,98 223,97 224,98 225,99 226,100 227,99 228,98 229,97 230,96 231,97 232,96 233,97 234,98 235,99 236,100 237,101 238,102 239,101 240,102 241,101 242,100 243,101 244,100 245,99 246,98 247,97 248,96 249,95 250,96 251,95 252,94 253,95 254,94 255,95 256,94 257,95 258,96 259,95 260,96 261,95 262,94 263,95 264,96 265,97 266,96 267,95 268,96 269,95 270,94 271,93 272,94 273,95 274,94 275,93 276,94 277,93 278,92 279,93 280,94 281,93 282,92 283,91 284,90 285,91 286,90 287,91 288,90 289,89 290,90 291,91 292,90 293,91 294,92 295,93 296,92 297,93 298,94 299,95 300,94 301,95 302,96 303,97 304,98 305,99 306,98 307,99 308,100 309,101 310,100 311,101 312,102 313,103 314,102 315,101 316,102 317,103 318,102 319,101 320,100 321,99 322,98 323,97 324,96 325,97 326,98 327,99 328,100 329,101 330,102 331,101 332,102 333,101 334,100 335,101 336,100 337,101 338,102 339,101 340,100 341,99 342,100 343,99 344,98 345,97 346,98 347,97 348,96 349,95 350,94 351,95 352,96 353,97 354,98 355,99 356,100 357,99 358,100 359,101 360,100 361,101 362,100 363,99 364,98 365,97 366,98 367,99 368,98 369,97 370,96 371,97 372,98 373,99 374,100 375,99 376,98 377,97 378,98 379,99 380,100 381,101 382,100 383,101 384,102 385,101 386,100 387,101 388,100 389,101 390,102 391,101 392,102 393,101 394,100 395,99 396,100 397,101 398,100 399,101 400,200 " style="fill:rgb(0,0,97);stroke:rgb(197,44,65)"></polygon><polygon points="0,200 0,100 1,101 2,100 3,99 4,98 5,97 6,98 7,99 8,100 9,99 10,100 11,99 12,100 13,101 14,102 15,101 16,100 17,99 18,100 19,99 20,100 21,101 22,102 23,103 24,104 25,103 26,102 27,103 28,104 29,103 30,102 31,101 32,100 33,99 34,100 35,99 36,98 37,97 38,98 39,99 40,98 41,99 42,100 43,99 44,100 45,99 46,100 47,99 48,100 49,101 50,102 51,101 52,100 53,99 54,100 55,99 56,98 57,97 58,96 59,95 60,96 61,95 62,94 63,95 64,96 65,97 66,96 67,97 68,96 69,95 70,96 71,95 72,96 73,95 74,96 75,97 76,96 77,95 78,94 79,95 80,96 81,95 82,94 83,95 84,94 85,95 86,96 87,95 88,94 89,93 90,94 91,93 92,92 93,91 94,92 95,93 96,92 97,91 98,90 99,91 100,90 101,91 102,92 103,91 104,90 105,91 106,92 107,91 108,90 109,91 110,90 111,91 112,92 113,91 114,92 115,91 116,92 117,91 118,92 119,93 120,92 121,91 122,90 123,89 124,90 125,91 126,90 127,91 128,90 129,91 130,92 131,91 132,90 133,91 134,90 135,91 136,90 137,89 138,88 139,87 140,86 141,87 142,86 143,87 144,86 145,85 146,86 147,85 148,86 149,85 150,86 151,87 152,86 153,85 154,86 155,87 156,86 157,85 158,86 159,87 160,86 161,85 162,84 163,83 164,82 165,81 166,82 167,81 168,80 169,79 170,80 171,81 172,82 173,81 174,80 175,81 176,80 177,79 178,78 179,77 180,78 181,77 182,76 183,77 184,78 185,77 186,78 187,79 188,80 189,79 190,78 191,77 192,78 193,79 194,78 195,79 196,80 197,81 198,82 199,83 200,82 201,81 202,80 203,79 204,78 205,77 206,78 207,79 208,78 209,79 210,80 211,79 212,80 213,79 214,78 215,77 216,78 217,79 218,80 219,81 220,80 221,79 222,78 223,79 224,78 225,77 226,76 227,75 228,74 229,75 230,76 231,77 232,76 233,77 234,78 235,77 236,76 237,77 238,78 239,79 240,80 241,79 242,78 243,79 244,80 245,79 246,80 247,81 248,80 249,79 250,80 251,81 252,80 253,81 254,82 255,81 256,82 257,83 258,84 259,83 260,82 261,81 262,80 263,79 264,78 265,77 266,78 267,77 268,78 269,79 270,78 271,79 272,80 273,81 274,82 275,83 276,84 277,85 278,84 279,83 280,84 281,83 282,82 283,83 284,82 285,81 286,80 287,79 288,80 289,81 290,80 291,81 292,82 293,83 294,82 295,83 296,84 297,85 298,84 299,85 300,86 301,85 302,86 303,85 304,86 305,87 306,88 307,87 308,88 309,87 310,86 311,85 312,84 313,83 314,82 315,83 316,82 317,83 318,84 319,83 320,84 321,85 322,86 323,85 324,84 325,85 326,84 327,83 328,82 329,83 330,84 331,85 332,86 333,85 334,84 335,85 336,86 337,85 338,86 339,85 340,84 341,83 342,84 343,83 344,82 345,81 346,80 347,81 348,82 349,83 350,82 351,81 352,80 353,79 354,78 355,79 356,78 357,79 358,80 359,81 360,82 361,81 362,80 363,81 364,80 365,81 366,82 367,83 368,84 369,83 370,84 371,83 372,84 373,83 374,82 375,83 376,84 377,83 378,82 379,83 380,82 381,83 382,82 383,81 384,82 385,81 386,82 387,81 388,82 389,81 390,82 391,83 392,82 393,81 394,80 395,81 396,82 397,83 398,84 399,85 400,200 " style="fill:rgb(0,46,138);stroke:rgb(238,146,59)"></polygon><polygon points="0,200 0,100 1,101 2,102 3,101 4,100 5,99 6,98 7,97 8,98 9,99 10,98 11,97 12,98 13,97 14,98 15,99 16,100 17,99 18,100 19,99 20,100 21,99 22,100 23,101 24,102 25,101 26,102 27,101 28,102 29,103 30,104 31,105 32,106 33,107 34,108 35,109 36,108 37,109 38,110 39,111 40,110 41,109 42,108 43,107 44,106 45,107 46,106 47,105 48,104 49,103 50,104 51,103 52,102 53,101 54,102 55,101 56,102 57,103 58,104 59,103 60,102 61,101 62,100 63,99 64,98 65,97 66,96 67,97 68,96 69,97 70,98 71,99 72,100 73,99 74,100 75,101 76,102 77,103 78,102 79,103 80,102 81,101 82,100 83,101 84,102 85,101 86,100 87,99 88,100 89,101 90,100 91,101 92,102 93,101 94,102 95,103 96,102 97,103 98,104 99,103 100,102 101,103 102,102 103,103 104,104 105,105 106,104 107,105 108,106 109,105 110,106 111,107 112,106 113,105 114,104 115,105 116,104 117,105 118,106 119,107 120,108 121,109 122,108 123,109 124,110 125,111 126,110 127,109 128,108 129,109 130,108 131,109 132,110 133,111 134,110 135,111 136,112 137,111 138,110 139,111 140,112 141,111 142,112 143,111 144,110 145,109 146,110 147,111 148,112 149,113 150,112 151,111 152,110 153,111 154,110 155,109 156,108 157,107 158,108 159,107 160,106 161,105 162,106 163,107 164,106 165,105 166,106 167,105 168,104 169,105 170,104 171,105 172,104 173,105 174,106 175,107 176,106 177,107 178,106 179,107 180,108 181,109 182,108 183,109 184,108 185,107 186,106 187,107 188,108 189,109 190,108 191,107 192,108 193,107 194,106 195,107 196,106 197,105 198,104 199,105 200,106 201,107 202,106 203,105 204,106 205,107 206,106 207,105 208,104 209,105 210,106 211,105 212,106 213,107 214,108 215,107 216,106 217,107 218,108 219,107 220,106 221,107 222,106 223,107 224,108 225,109 226,108 227,109 228,110 229,111 230,110 231,109 232,108 233,109 234,108 235,109 236,110 237,109 238,108 239,109 240,108 241,107 242,108 243,109 244,108 245,109 246,108 247,109 248,110 249,111 250,110 251,111 252,110 253,109 254,110 255,111 256,110 257,111 258,112 259,113 260,114 261,113 262,114 263,115 264,116 265,117 266,116 267,117 268,118 269,117 270,118 271,117 272,116 273,117 274,118 275,119 276,120 277,121 278,120 279,119 280,118 281,119 282,120 283,119 284,120 285,119 286,118 287,117 288,118 289,117 290,118 291,117 292,116 293,115 294,116 295,115 296,116 297,115 298,116 299,117 300,116 301,115 302,116 303,117 304,116 305,117 306,116 307,117 308,118 309,119 310,118 311,117 312,118 313,117 314,116 315,117 316,116 317,115 318,114 319,115 320,116 321,117 322,118 323,117 324,116 325,117 326,118 327,119 328,118 329,119 330,118 331,117 332,116 333,115 334,116 335,117 336,118 337,117 338,116 339,117 340,116 341,117 342,118 343,119 344,118 345,117 346,118 347,117 348,116 349,115 350,114 351,113 352,112 353,111 354,110 355,111 356,112 357,111 358,112 359,111 360,112 361,113 362,112 363,111 364,112 365,113 366,114 367,113 368,112 369,111 370,112 371,111 372,112 373,111 374,110 375,109 376,110 377,109 378,110 379,111 380,110 381,111 382,110 383,111 384,110 385,111 386,112 387,111 388,112 389,113 390,114 391,115 392,114 393,113 394,114 395,113 396,112 397,113 398,114 399,115 400,200 " style="fill:rgb(64,0,1);stroke:rgb(101,68,164)"></polygon><polygon points="0,200 0,100 1,101 2,100 3,101 4,100 5,99 6,100 7,99 8,100 9,99 10,98 11,99 12,98 13,99 14,98 15,97 16,98 17,99 18,98 19,97 20,98 21,99 22,100 23,101 24,102 25,101 26,100 27,101 28,100 29,99 30,98 31,97 32,96 33,95 34,96 35,97 36,96 37,97 38,98 39,97 40,98 41,97 42,98 43,97 44,96 45,95 46,94 47,95 48,94 49,95 50,94 51,95 52,94 53,95 54,94 55,93 56,94 57,93 58,94 59,95 60,94 61,93 62,94 63,95 64,96 65,95 66,96 67,95 68,96 69,95 70,94 71,93 72,94 73,93 74,94 75,95 76,96 77,95 78,94 79,95 80,96 81,97 82,98 83,99 84,100 85,99 86,100 87,99 88,100 89,101 90,100 91,99 92,100 93,99 94,98 95,99 96,100 97,99 98,100 99,99 100,100 101,99 102,98 103,97 104,98 105,99 106,100 107,99 108,100 109,99 110,100 111,99 112,100 113,101 114,102 115,101 116,100 117,99 118,98 119,97 120,98 121,99 122,100 123,99 124,100 125,99 126,98 127,99 128,100 129,99 130,98 131,97 132,96 133,95 134,96 135,97 136,96 137,95 138,94 139,95 140,96 141,95 142,96 143,95 144,96 145,95 146,96 147,97 148,96 149,97 150,98 151,97 152,98 153,99 154,98 155,99 156,98 157,99 158,98 159,99 160,98 161,99 162,98 163,97 164,98 165,99 166,98 167,97 168,96 169,97 170,98 171,97 172,98 173,99 174,98 175,99 176,98 177,97 178,98 179,99 180,98 181,99 182,100 183,101 184,100 185,101 186,100 187,101 188,100 189,99 190,98 191,97 192,98 193,99 194,98 195,97 196,98 197,99 198,98 199,97 200,98 201,97 202,98 203,99 204,98 205,97 206,96 207,95 208,94 209,93 210,94 211,95 212,96 213,97 214,96 215,95 216,94 217,95 218,94 219,95 220,94 221,95 222,94 223,95 224,94 225,93 226,94 227,93 228,94 229,93 230,92 231,91 232,90 233,91 234,90 235,91 236,90 237,89 238,90 239,89 240,88 241,89 242,88 243,89 244,88 245,89 246,88 247,89 248,90 249,89 250,88 251,87 252,88 253,89 254,88 255,87 256,86 257,85 258,86 259,85 260,86 261,85 262,84 263,85 264,84 265,85 266,84 267,83 268,84 269,83 270,84 271,85 272,86 273,87 274,86 275,87 276,86 277,87 278,86 279,85 280,86 281,85 282,86 283,87 284,86 285,85 286,86 287,87 288,88 289,87 290,88 291,89 292,90 293,91 294,90 295,89 296,88 297,89 298,90 299,91 300,90 301,91 302,90 303,89 304,90 305,91 306,90 307,89 308,88 309,87 310,86 311,87 312,86 313,87 314,88 315,87 316,86 317,87 318,86 319,87 320,88 321,89 322,90 323,89 324,88 325,89 326,88 327,87 328,88 329,89 330,90 331,89 332,90 333,91 334,92 335,93 336,94 337,95 338,94 339,95 340,94 341,93 342,92 343,91 344,92 345,93 346,94 347,95 348,94 349,95 350,94 351,93 352,94 353,93 354,94 355,93 356,92 357,93 358,92 359,93 360,92 361,91 362,90 363,89 364,88 365,89 366,90 367,91 368,90 369,89 370,90 371,89 372,90 373,91 374,90 375,91 376,92 377,93 378,94 379,93 380,92 381,91 382,90 383,89 384,90 385,91 386,90 387,89 388,90 389,91 390,92 391,91 392,92 393,91 394,92 395,91 396,90 397,91 398,92 399,91 400,200 " style="fill:rgb(131,0,120);stroke:rgb(220,55,231)"></polygon><polygon points="0,200 0,100 1,101 2,102 3,101 4,100 5,99 6,98 7,99 8,98 9,97 10,98 11,97 12,98 13,97 14,96 15,95 16,96 17,95 18,94 19,93 20,94 21,95 22,96 23,97 24,98 25,97 26,98 27,97 28,98 29,97 30,98 31,97 32,98 33,99 34,98 35,99 36,100 37,99 38,100 39,99 40,98 41,97 42,98 43,97 44,96 45,95 46,96 47,95 48,94 49,95 50,96 51,97 52,98 53,99 54,98 55,99 56,98 57,97 58,98 59,99 60,100 61,101 62,102 63,103 64,102 65,101 66,100 67,99 68,100 69,99 70,100 71,101 72,102 73,101 74,102 75,101 76,100 77,101 78,102 79,103 80,102 81,103 82,102 83,103 84,102 85,103 86,102 87,103 88,104 89,105 90,106 91,107 92,108 93,109 94,110 95,109 96,110 97,111 98,112 99,111 100,112 101,113 102,114 103,113 104,114 105,113 106,112 107,111 108,112 109,113 110,112 111,113 112,114 113,113 114,112 115,113 116,112 117,111 118,110 119,109 120,108 121,109 122,110 123,109 124,108 125,107 126,108 127,109 128,110 129,109 130,108 131,107 132,108 133,107 134,108 135,109 136,108 137,107 138,108 139,109 140,110 141,111 142,110 143,111 144,112 145,113 146,112 147,111 148,110 149,111 150,110 151,111 152,110 153,109 154,110 155,111 156,112 157,113 158,114 159,113 160,112 161,111 162,110 163,111 164,112 165,113 166,112 167,111 168,110 169,109 170,108 171,109 172,108 173,109 174,110 175,111 176,110 177,111 178,110 179,111 180,112 181,113 182,114 183,115 184,114 185,113 186,114 187,113 188,112 189,111 190,110 191,111 192,112 193,113 194,114 195,115 196,114 197,113 198,112 199,111 200,110 201,111 202,112 203,111 204,112 205,113 206,114 207,115 208,114 209,113 210,112 211,113 212,114 213,113 214,112 215,113 216,112 217,111 218,110 219,111 220,112 221,111 222,110 223,109 224,108 225,109 226,108 227,107 228,106 229,105 230,106 231,105 232,106 233,107 234,106 235,107 236,108 237,109 238,110 239,111 240,110 241,109 242,110 243,109 244,110 245,109 246,108 247,109 248,110 249,109 250,110 251,111 252,112 253,113 254,114 255,113 256,114 257,113 258,112 259,113 260,112 261,111 262,112 263,111 264,110 265,109 266,110 267,109 268,110 269,111 270,112 271,113 272,114 273,113 274,114 275,113 276,112 277,111 278,110 279,111 280,110 281,111 282,112 283,113 284,112 285,113 286,114 287,115 288,116 289,115 290,116 291,115 292,114 293,113 294,112 295,111 296,110 297,109 298,108 299,107 300,108 301,107 302,108 303,109 304,110 305,109 306,108 307,109 308,110 309,109 310,108 311,107 312,106 313,105 314,106 315,105 316,104 317,105 318,104 319,105 320,106 321,107 322,108 323,107 324,106 325,107 326,106 327,105 328,106 329,107 330,108 331,109 332,108 333,109 334,110 335,109 336,108 337,107 338,108 339,109 340,110 341,109 342,108 343,109 344,110 345,111 346,110 347,111 348,112 349,113 350,114 351,115 352,114 353,115 354,116 355,117 356,116 357,115 358,114 359,113 360,114 361,113 362,114 363,115 364,116 365,115 366,116 367,115 368,114 369,113 370,114 371,115 372,114 373,113 374,112 375,113 376,114 377,115 378,114 379,115 380,114 381,115 382,116 383,117 384,116 385,115 386,114 387,113 388,112 389,113 390,112 391,111 392,110 393,111 394,112 395,113 396,112 397,113 398,112 399,111 400,200 " style="fill:rgb(28,113,13);stroke:rgb(113,213,128)"></polygon><polygon points="0,200 0,100 1,101 2,100 3,101 4,100 5,99 6,98 7,99 8,98 9,99 10,98 11,99 12,100 13,99 14,98 15,97 16,96 17,95 18,96 19,95 20,94 21,95 22,94 23,95 24,94 25,95 26,96 27,95 28,94 29,93 30,92 31,93 32,94 33,95 34,94 35,93 36,92 37,93 38,92 39,93 40,94 41,95 42,96 43,95 44,96 45,97 46,96 47,97 48,98 49,99 50,98 51,99 52,100 53,101 54,102 55,101 56,100 57,99 58,98 59,99 60,98 61,99 62,100 63,99 64,100 65,99 66,98 67,99 68,100 69,99 70,98 71,99 72,100 73,99 74,100 75,101 76,102 77,101 78,102 79,101 80,102 81,103 82,102 83,103 84,102 85,101 86,102 87,101 88,100 89,101 90,102 91,103 92,102 93,103 94,102 95,103 96,102 97,103 98,104 99,103 100,104 101,103 102,102 103,101 104,102 105,101 106,102 107,101 108,100 109,101 110,102 111,103 112,104 113,103 114,102 115,101 116,100 117,99 118,100 119,101 120,100 121,99 122,98 123,99 124,100 125,101 126,100 127,99 128,98 129,97 130,96 131,95 132,96 133,97 134,96 135,95 136,94 137,93 138,92 139,91 140,92 141,91 142,92 143,91 144,90 145,89 146,88 147,87 148,86 149,87 150,86 151,87 152,86 153,87 154,86 155,87 156,86 157,87 158,88 159,87 160,86 161,85 162,86 163,85 164,84 165,85 166,84 167,83 168,84 169,85 170,84 171,83 172,82 173,81 174,80 175,81 176,82 177,81 178,80 179,79 180,80 181,81 182,80 183,81 184,80 185,79 186,80 187,79 188,80 189,79 190,80 191,79 192,80 193,81 194,82 195,83 196,82 197,81 198,82 199,83 200,82 201,83 202,84 203,83 204,84 205,83 206,82 207,83 208,84 209,85 210,84 211,85 212,86 213,87 214,86 215,87 216,88 217,89 218,90 219,89 220,90 221,89 222,90 223,91 224,92 225,91 226,92 227,91 228,92 229,93 230,94 231,93 232,92 233,93 234,92 235,91 236,92 237,93 238,94 239,93 240,94 241,95 242,96 243,95 244,94 245,93 246,94 247,95 248,96 249,97 250,98 251,97 252,98 253,97 254,98 255,97 256,98 257,99 258,100 259,99 260,100 261,101 262,102 263,103 264,104 265,103 266,102 267,103 268,102 269,101 270,102 271,101 272,102 273,103 274,104 275,105 276,106 277,105 278,106 279,105 280,106 281,107 282,106 283,107 284,106 285,105 286,104 287,105 288,106 289,105 290,104 291,103 292,102 293,101 294,102 295,101 296,100 297,101 298,102 299,103 300,104 301,105 302,106 303,107 304,108 305,107 306,106 307,105 308,104 309,105 310,106 311,107 312,106 313,107 314,108 315,109 316,110 317,111 318,110 319,111 320,110 321,111 322,110 323,109 324,110 325,111 326,110 327,111 328,112 329,113 330,114 331,113 332,112 333,111 334,112 335,111 336,110 337,109 338,110 339,111 340,110 341,109 342,108 343,109 344,108 345,107 346,106 347,105 348,104 349,103 350,104 351,103 352,104 353,105 354,104 355,105 356,104 357,103 358,104 359,105 360,106 361,105 362,104 363,103 364,104 365,103 366,102 367,101 368,100 369,101 370,102 371,101 372,102 373,101 374,100 375,99 376,100 377,99 378,98 379,97 380,98 381,99 382,98 383,97 384,98 385,99 386,100 387,101 388,102 389,103 390,104 391,103 392,104 393,103 394,102 395,103 396,104 397,105 398,106 399,107 400,200 " style="fill:rgb(3,148,0);stroke:rgb(21,248,103)"></polygon><polygon points="0,200 0,100 1,101 2,102 3,103 4,102 5,101 6,100 7,99 8,100 9,101 10,102 11,103 12,104 13,105 14,104 15,105 16,106 17,105 18,106 19,107 20,108 21,109 22,108 23,109 24,110 25,111 26,112 27,113 28,112 29,113 30,114 31,113 32,114 33,113 34,112 35,113 36,114 37,115 38,116 39,115 40,116 41,117 42,118 43,117 44,118 45,117 46,116 47,117 48,118 49,117 50,116 51,115 52,116 53,117 54,118 55,119 56,118 57,117 58,116 59,117 60,116 61,115 62,114 63,115 64,116 65,115 66,114 67,115 68,116 69,117 70,116 71,117 72,118 73,117 74,116 75,117 76,116 77,117 78,118 79,117 80,116 81,115 82,114 83,115 84,114 85,113 86,112 87,111 88,110 89,109 90,110 91,109 92,110 93,111 94,112 95,111 96,112 97,111 98,110 99,111 100,112 101,113 102,112 103,113 104,112 105,111 106,110 107,111 108,110 109,111 110,112 111,113 112,114 113,113 114,114 115,113 116,114 117,113 118,114 119,113 120,112 121,111 122,110 123,111 124,112 125,111 126,112 127,111 128,110 129,111 130,110 131,109 132,108 133,107 134,106 135,105 136,106 137,105 138,106 139,105 140,104 141,103 142,102 143,101 144,100 145,99 146,98 147,97 148,96 149,95 150,94 151,93 152,92 153,93 154,94 155,95 156,96 157,95 158,96 159,95 160,96 161,95 162,94 163,93 164,94 165,93 166,94 167,93 168,94 169,95 170,94 171,95 172,96 173,97 174,96 175,95 176,96 177,97 178,98 179,97 180,96 181,95 182,96 183,97 184,96 185,97 186,98 187,99 188,100 189,99 190,100 191,99 192,100 193,101 194,100 195,99 196,100 197,101 198,100 199,99 200,100 201,99 202,98 203,97 204,98 205,99 206,100 207,99 208,100 209,101 210,100 211,99 212,100 213,101 214,100 215,99 216,98 217,97 218,98 219,99 220,98 221,97 222,96 223,95 224,96 225,95 226,94 227,95 228,96 229,95 230,96 231,97 232,96 233,97 234,98 235,97 236,96 237,97 238,96 239,95 240,94 241,95 242,94 243,93 244,94 245,93 246,94 247,93 248,92 249,93 250,94 251,93 252,92 253,91 254,90 255,89 256,90 257,89 258,88 259,89 260,88 261,89 262,88 263,87 264,86 265,85 266,84 267,85 268,84 269,83 270,84 271,83 272,84 273,85 274,86 275,87 276,88 277,87 278,88 279,89 280,90 281,89 282,90 283,91 284,92 285,91 286,92 287,93 288,94 289,95 290,94 291,95 292,96 293,97 294,96 295,95 296,94 297,95 298,96 299,95 300,96 301,97 302,96 303,97 304,98 305,97 306,98 307,97 308,96 309,95 310,96 311,97 312,96 313,97 314,98 315,97 316,98 317,99 318,100 319,101 320,102 321,103 322,104 323,105 324,106 325,107 326,108 327,109 328,108 329,107 330,106 331,107 332,106 333,107 334,106 335,107 336,108 337,107 338,108 339,109 340,108 341,107 342,108 343,109 344,108 345,107 346,106 347,105 348,106 349,107 350,108 351,109 352,110 353,111 354,112 355,113 356,114 357,115 358,114 359,113 360,112 361,113 362,114 363,115 364,116 365,115 366,114 367,113 368,112 369,113 370,114 371,113 372,114 373,113 374,112 375,113 376,114 377,115 378,116 379,115 380,114 381,113 382,114 383,115 384,114 385,115 386,116 387,117 388,116 389,117 390,118 391,119 392,120 393,121 394,120 395,121 396,120 397,121 398,120 399,121 400,200 " style="fill:rgb(37,15,140);stroke:rgb(240,115,137)"></polygon><polygon points="0,200 0,100 1,101 2,102 3,101 4,100 5,99 6,98 7,99 8,98 9,97 10,96 11,95 12,96 13,95 14,96 15,97 16,98 17,97 18,96 19,97 20,98 21,99 22,100 23,99 24,100 25,99 26,98 27,99 28,98 29,99 30,98 31,99 32,100 33,101 34,100 35,101 36,100 37,99 38,98 39,97 40,96 41,97 42,98 43,99 44,100 45,101 46,100 47,101 48,102 49,101 50,102 51,101 52,100 53,99 54,100 55,99 56,100 57,99 58,100 59,101 60,100 61,101 62,100 63,101 64,102 65,103 66,104 67,103 68,102 69,101 70,100 71,99 72,100 73,101 74,102 75,103 76,104 77,105 78,106 79,105 80,106 81,107 82,106 83,107 84,108 85,107 86,108 87,107 88,106 89,105 90,104 91,103 92,102 93,103 94,102 95,103 96,104 97,105 98,106 99,105 100,106 101,107 102,106 103,107 104,108 105,107 106,108 107,107 108,108 109,107 110,106 111,105 112,104 113,103 114,102 115,103 116,104 117,105 118,104 119,103 120,102 121,103 122,102 123,103 124,102 125,103 126,104 127,103 128,104 129,103 130,104 131,105 132,106 133,105 134,106 135,107 136,108 137,109 138,108 139,107 140,108 141,107 142,108 143,109 144,110 145,111 146,110 147,109 148,110 149,111 150,112 151,111 152,112 153,111 154,112 155,111 156,112 157,113 158,114 159,113 160,114 161,115 162,116 163,115 164,114 165,115 166,114 167,113 168,112 169,111 170,110 171,111 172,112 173,111 174,110 175,111 176,110 177,109 178,110 179,111 180,112 181,113 182,112 183,113 184,112 185,113 186,114 187,115 188,116 189,117 190,116 191,117 192,116 193,115 194,116 195,117 196,116 197,115 198,114 199,113 200,114 201,115 202,114 203,113 204,114 205,115 206,114 207,115 208,114 209,115 210,114 211,115 212,116 213,117 214,118 215,119 216,120 217,121 218,122 219,121 220,122 221,121 222,120 223,121 224,122 225,121 226,122 227,123 228,124 229,123 230,124 231,125 232,124 233,125 234,124 235,125 236,124 237,125 238,124 239,123 240,124 241,125 242,124 243,123 244,122 245,121 246,120 247,121 248,120 249,121 250,122 251,121 252,120 253,119 254,118 255,117 256,118 257,117 258,118 259,119 260,120 261,121 262,120 263,121 264,122 265,121 266,120 267,121 268,120 269,119 270,118 271,119 272,118 273,119 274,120 275,121 276,120 277,121 278,122 279,121 280,122 281,123 282,122 283,123 284,124 285,125 286,124 287,125 288,126 289,127 290,126 291,125 292,126 293,125 294,124 295,125 296,124 297,125 298,126 299,125 300,124 301,125 302,124 303,123 304,124 305,125 306,124 307,125 308,124 309,123 310,122 311,123 312,122 313,123 314,122 315,123 316,124 317,125 318,124 319,123 320,124 321,125 322,126 323,127 324,126 325,125 326,126 327,125 328,124 329,123 330,122 331,123 332,124 333,123 334,122 335,121 336,122 337,121 338,122 339,121 340,122 341,121 342,120 343,121 344,122 345,123 346,124 347,123 348,122 349,121 350,120 351,119 352,120 353,119 354,120 355,121 356,122 357,123 358,124 359,125 360,126 361,127 362,126 363,127 364,128 365,129 366,128 367,127 368,126 369,127 370,128 371,129 372,130 373,129 374,128 375,127 376,126 377,127 378,128 379,129 380,130 381,131 382,130 383,129 384,130 385,131 386,132 387,131 388,132 389,133 390,134 391,133 392,134 393,135 394,136 395,135 396,134 397,135 398,136 399,137 400,200 " style="fill:rgb(0,42,0);stroke:rgb(13,142,46)"></polygon><polygon points="0,200 0,100 1,99 2,100 3,101 4,102 5,101 6,100 7,101 8,100 9,99 10,100 11,101 12,102 13,103 14,104 15,103 16,104 17,105 18,106 19,105 20,104 21,105 22,104 23,103 24,102 25,101 26,102 27,103 28,104 29,103 30,102 31,101 32,100 33,99 34,100 35,101 36,102 37,101 38,102 39,101 40,100 41,99 42,98 43,97 44,98 45,99 46,98 47,97 48,96 49,95 50,94 51,93 52,92 53,91 54,92 55,91 56,92 57,93 58,92 59,91 60,92 61,93 62,94 63,93 64,92 65,93 66,94 67,95 68,94 69,93 70,94 71,95 72,96 73,95 74,94 75,95 76,94 77,93 78,94 79,95 80,96 81,95 82,94 83,95 84,94 85,95 86,96 87,95 88,96 89,97 90,98 91,97 92,96 93,95 94,96 95,97 96,98 97,97 98,98 99,99 100,100 101,99 102,98 103,99 104,100 105,101 106,100 107,99 108,100 109,99 110,98 111,97 112,98 113,99 114,100 115,99 116,100 117,101 118,102 119,101 120,102 121,101 122,102 123,101 124,102 125,103 126,102 127,103 128,102 129,101 130,102 131,101 132,100 133,101 134,100 135,101 136,100 137,99 138,100 139,101 140,100 141,101 142,100 143,99 144,98 145,99 146,100 147,101 148,100 149,101 150,100 151,101 152,102 153,103 154,102 155,103 156,104 157,103 158,102 159,101 160,100 161,99 162,100 163,99 164,98 165,99 166,98 167,99 168,98 169,99 170,98 171,97 172,98 173,97 174,96 175,95 176,94 177,93 178,94 179,93 180,94 181,95 182,96 183,95 184,96 185,95 186,94 187,93 188,94 189,95 190,96 191,95 192,96 193,95 194,94 195,95 196,96 197,95 198,94 199,95 200,94 201,95 202,96 203,97 204,98 205,99 206,100 207,101 208,100 209,99 210,98 211,97 212,96 213,97 214,98 215,97 216,98 217,97 218,96 219,95 220,94 221,95 222,96 223,97 224,96 225,97 226,98 227,97 228,98 229,97 230,98 231,97 232,98 233,97 234,96 235,97 236,96 237,95 238,96 239,97 240,98 241,99 242,98 243,97 244,96 245,97 246,98 247,99 248,98 249,97 250,98 251,99 252,98 253,99 254,100 255,99 256,98 257,99 258,98 259,97 260,98 261,97 262,96 263,97 264,98 265,99 266,100 267,99 268,100 269,101 270,102 271,101 272,102 273,103 274,104 275,103 276,104 277,103 278,102 279,103 280,104 281,105 282,104 283,103 284,104 285,103 286,104 287,103 288,104 289,105 290,104 291,105 292,104 293,105 294,106 295,105 296,106 297,107 298,108 299,107 300,106 301,105 302,104 303,103 304,102 305,103 306,102 307,103 308,104 309,103 310,102 311,101 312,100 313,99 314,98 315,99 316,98 317,97 318,98 319,97 320,98 321,99 322,100 323,101 324,100 325,101 326,100 327,101 328,102 329,103 330,104 331,105 332,106 333,105 334,104 335,103 336,102 337,101 338,102 339,101 340,100 341,101 342,102 343,103 344,104 345,105 346,106 347,105 348,106 349,105 350,106 351,105 352,104 353,105 354,104 355,103 356,104 357,105 358,106 359,107 360,106 361,105 362,104 363,105 364,104 365,105 366,106 367,105 368,106 369,105 370,106 371,105 372,104 373,103 374,102 375,103 376,102 377,101 378,102 379,101 380,102 381,101 382,102 383,103 384,102 385,101 386,102 387,103 388,104 389,103 390,102 391,103 392,102 393,103 394,104 395,105 396,106 397,107 398,108 399,109 400,200 " style="fill:rgb(0,149,139);stroke:rgb(239,249,79)"></polygon></svg>