<svg xmlns="http://www.w3.org/2000/svg" xmlns:xlink="http://www.w3.org/1999/xlink" height="100" width="100"><polygon points="50,10 26.0,20.0 50,30.0 74.0,20.0 " style="fill:rgb(255,40,40);stroke:rgb(155,0,0)"></polygon><polygon points="50,30.0 26.0,20.0 26.0,50 50,60.0 " style="fill:rgb(255,0,0);stroke:rgb(155,0,0)"></polygon><polygon points="50,30.0 74.0,20.0 74.0,50 50,60.0 " style="fill:rgb(215,0,0);stroke:rgb(115,0,0)"></polygon><polygon points="46.0,13.0 46.0,17.0 50.0,17.0 50.0,13.0 " style="fill:rgb(255,255,255);stroke:rgb(155,155,155)"></polygon><polygon points="53.0,16.0 53.0,20.0 57.0,20.0 57.0,16.0 " style="fill:rgb(255,255,255);stroke:rgb(155,155,155)"></polygon><polygon points="60.0,19.0 60.0,23.000000000000004 64.0,23.000000000000004 64.0,19.0 " style="fill:rgb(255,255,255);stroke:rgb(155,155,155)"></polygon><polygon points="36.0,17.0 36.0,21.0 40.0,21.0 40.0,17.0 " style="fill:rgb(255,255,255);stroke:rgb(155,155,155)"></polygon><polygon points="43.0,20.0 43.0,24.000000000000004 47.0,24.000000000000004 47.0,20.0 " style="fill:rgb(255,255,255);stroke:rgb(155,155,155)"></polygon><polygon points="50.0,23.0 50.0,27.0 54.0,27.0 54.0,23.0 " style="fill:rgb(255,255,255);stroke:rgb(155,155,155)"></polygon><polygon points="56.0,34.0 56.0,38.0 60.0,38.0 60.0,34.0 " style="fill:rgb(255,255,255);stroke:rgb(155,155,155)"></polygon><polygon points="56.0,46.0 56.0,50.0 60.0,50.0 60.0,46.0 " style="fill:rgb(255,255,255);stroke:rgb(155,155,155)"></polygon><polygon points="66.0,30.0 66.0,34.0 70.0,34.0 70.0,30.0 " style="fill:rgb(255,255,255);stroke:rgb(155,155,155)"></polygon><polygon points="66.0,42.0 66.0,46.0 70.0,46.0 70.0,42.0 " style="fill:rgb(255,255,255);stroke:rgb(155,155,155)"></polygon><polygon points="30.0,30.0 30.0,34.0 34.0,34.0 34.0,30.0 " style="fill:rgb(255,255,255);stroke:rgb(155,155,155)"></polygon><polygon points="40.0,46.0 40.0,50.0 44.0,50.0 44.0,46.0 " style="fill:rgb(255,255,255);stroke:rgb(155,155,155)"></polygon></svg>