<svg xmlns="http://www.w3.org/2000/svg" xmlns:xlink="http://www.w3.org/1999/xlink" height="300" width="300"><polygon points="36,143.6 100,124.4 164,143.6 164,169.2 100,188.4 36,169.2 " style="fill:rgb(255,0,0);stroke:rgb(155,0,0)"></polygon><polygon points="36,137.2 100,118.0 164,137.2 164,162.8 100,182.0 36,162.8 " style="fill:rgb(255,0,0);stroke:rgb(155,0,0)"></polygon><polygon points="103.6,110.0 79.6,120.0 103.6,130.0 127.6,120.0 " style="fill:rgb(255,40,40);stroke:rgb(155,0,0)"></polygon><polygon points="103.6,130.0 79.6,120.0 79.6,150.0 103.6,160.0 " style="fill:rgb(255,0,0);stroke:rgb(155,0,0)"></polygon><polygon points="103.6,130.0 127.6,120.0 127.6,150.0 103.6,160.0 " style="fill:rgb(215,0,0);stroke:rgb(115,0,0)"></polygon><polygon points="99.6,113.0 99.6,117.0 103.6,117.0 103.6,113.0 " style="fill:rgb(255,255,255);stroke:rgb(155,155,155)"></polygon><polygon points="106.6,116.0 106.6,120.0 110.6,120.0 110.6,116.0 " style="fill:rgb(255,255,255);stroke:rgb(155,155,155)"></polygon><polygon points="113.6,119.0 113.6,123.0 117.6,123.0 117.6,119.0 " style="fill:rgb(255,255,255);stroke:rgb(155,155,155)"></polygon><polygon points="89.6,117.0 89.6,121.0 93.6,121.0 93.6,117.0 " style="fill:rgb(255,255,255);stroke:rgb(155,155,155)"></polygon><polygon points="96.6,120.0 96.6,124.0 100.6,124.0 100.6,120.0 " style="fill:rgb(255,255,255);stroke:rgb(155,155,155)"></polygon><polygon points="103.6,123.0 103.6,127.0 107.6,127.0 107.6,123.0 " style="fill:rgb(255,255,255);stroke:rgb(155,155,155)"></polygon><polygon points="109.6,134.0 109.6,138.0 113.6,138.0 113.6,134.0 " style="fill:rgb(255,255,255);stroke:rgb(155,155,155)"></polygon><polygon points="109.6,146.0 109.6,150.0 113.6,150.0 113.6,146.0 " style="fill:rgb(255,255,255);stroke:rgb(155,155,155)"></polygon><polygon points="119.6,130.0 119.6,134.0 123.6,134.0 123.6,130.0 " style="fill:rgb(255,255,255);stroke:rgb(155,155,155)"></polygon><polygon points="119.6,142.0 119.6,146.0 123.6,146.0 123.6,142.0 " style="fill:rgb(255,255,255);stroke:rgb(155,155,155)"></polygon><polygon points="83.6,130.0 83.6,134.0 87.6,134.0 87.6,130.0 " style="fill:rgb(255,255,255);stroke:rgb(155,155,155)"></polygon><polygon points="93.6,146.0 93.6,150.0 97.6,150.0 97.6,146.0 " style="fill:rgb(255,255,255);stroke:rgb(155,155,155)"></polygon><polygon points="96.4,78.0 72.4,88.0 96.4,98.0 120.4,88.0 " style="fill:rgb(255,40,40);stroke:rgb(155,0,0)"></polygon><polygon points="96.4,98.0 72.4,88.0 72.4,118.0 96.4,128.0 " style="fill:rgb(255,0,0);stroke:rgb(155,0,0)"></polygon><polygon points="96.4,98.0 120.4,88.0 120.4,118.0 96.4,128.0 " style="fill:rgb(215,0,0);stroke:rgb(115,0,0)"></polygon><polygon points="92.4,81.0 92.4,85.0 96.4,85.0 96.4,81.0 " style="fill:rgb(255,255,255);stroke:rgb(155,155,155)"></polygon><polygon points="99.4,84.0 99.4,88.0 103.4,88.0 103.4,84.0 " style="fill:rgb(255,255,255);stroke:rgb(155,155,155)"></polygon><polygon points="106.4,87.0 106.4,91.0 110.4,91.0 110.4,87.0 " style="fill:rgb(255,255,255);stroke:rgb(155,155,155)"></polygon><polygon points="82.4,85.0 82.4,89.0 86.4,89.0 86.4,85.0 " style="fill:rgb(255,255,255);stroke:rgb(155,155,155)"></polygon><polygon points="89.4,88.0 89.4,92.0 93.4,92.0 93.4,88.0 " style="fill:rgb(255,255,255);stroke:rgb(155,155,155)"></polygon><polygon points="96.4,91.0 96.4,95.0 100.4,95.0 100.4,91.0 " style="fill:rgb(255,255,255);stroke:rgb(155,155,155)"></polygon><polygon points="102.4,102.0 102.4,106.0 106.4,106.0 106.4,102.0 " style="fill:rgb(255,255,255);stroke:rgb(155,155,155)"></polygon><polygon points="102.4,114.0 102.4,118.0 106.4,118.0 106.4,114.0 " style="fill:rgb(255,255,255);stroke:rgb(155,155,155)"></polygon><polygon points="112.4,98.0 112.4,102.0 116.4,102.0 116.4,98.0 " style="fill:rgb(255,255,255);stroke:rgb(155,155,155)"></polygon><polygon points="112.4,110.0 112.4,114.0 116.4,114.0 116.4,110.0 " style="fill:rgb(255,255,255);stroke:rgb(155,155,155)"></polygon><polygon points="76.4,98.0 76.4,102.0 80.4,102.0 80.4,98.0 " style="fill:rgb(255,255,255);stroke:rgb(155,155,155)"></polygon><polygon points="86.4,114.0 86.4,118.0 90.4,118.0 90.4,114.0 " style="fill:rgb(255,255,255);stroke:rgb(155,155,155)"></polygon><polygon points="103.6,46.0 79.6,56.0 103.6,66.0 127.6,56.0 " style="fill:rgb(255,40,40);stroke:rgb(155,0,0)"></polygon><polygon points="103.6,66.0 79.6,56.0 79.6,86.0 103.6,96.0 " style="fill:rgb(255,0,0);stroke:rgb(155,0,0)"></polygon><polygon points="103.6,66.0 127.6,56.0 127.6,86.0 103.6,96.0 " style="fill:rgb(215,0,0);stroke:rgb(115,0,0)"></polygon><polygon points="99.6,49.0 99.6,53.0 103.6,53.0 103.6,49.0 " style="fill:rgb(255,255,255);stroke:rgb(155,155,155)"></polygon><polygon points="106.6,52.0 106.6,56.0 110.6,56.0 110.6,52.0 " style="fill:rgb(255,255,255);stroke:rgb(155,155,155)"></polygon><polygon points="113.6,55.0 113.6,59.0 117.6,59.0 117.6,55.0 " style="fill:rgb(255,255,255);stroke:rgb(155,155,155)"></polygon><polygon points="89.6,53.0 89.6,57.0 93.6,57.0 93.6,53.0 " style="fill:rgb(255,255,255);stroke:rgb(155,155,155)"></polygon><polygon points="96.6,56.0 96.6,60.0 100.6,60.0 100.6,56.0 " style="fill:rgb(255,255,255);stroke:rgb(155,155,155)"></polygon><polygon points="103.6,59.0 103.6,63.0 107.6,63.0 107.6,59.0 " style="fill:rgb(255,255,255);stroke:rgb(155,155,155)"></polygon><polygon points="109.6,70.0 109.6,74.0 113.6,74.0 113.6,70.0 " style="fill:rgb(255,255,255);stroke:rgb(155,155,155)"></polygon><polygon points="109.6,82.0 109.6,86.0 113.6,86.0 113.6,82.0 " style="fill:rgb(255,255,255);stroke:rgb(155,155,155)"></polygon><polygon points="119.6,66.0 119.6,70.0 123.6,70.0 123.6,66.0 " style="fill:rgb(255,255,255);stroke:rgb(155,155,155)"></polygon><polygon points="119.6,78.0 119.6,82.0 123.6,82.0 123.6,78.0 " style="fill:rgb(255,255,255);stroke:rgb(155,155,155)"></polygon><polygon points="83.6,66.0 83.6,70.0 87.6,70.0 87.6,66.0 " style="fill:rgb(255,255,255);stroke:rgb(155,155,155)"></polygon><polygon points="93.6,82.0 93.6,86.0 97.6,86.0 97.6,82.0 " style="fill:rgb(255,255,255);stroke:rgb(155,155,155)"></polygon></svg>